# xmcd
#
# Track frame offsets:
#	150
#	17185
#	34545
#	54036
#	68665
#	86560
#	105708
#	119456
#	136169
#	152426
#	167974
#	178677
#	193111
#	209609
#	226330
#	241768
#	253775
#	268527
#	292075
#	308440
#
# Disc length: 4364
#
# Revision: 1
# Processed by: cddbd v1.5.1PL0 Copyright (c) Steve Scherf et al.
# Submitted via: ExactAudioCopy v0.90a11
# Normalized: r0:DSETVAR1
#
DISCID=0f110a14
DTITLE=Various Artist - The Beach Music Anthology 2, Disk 3S
DYEAR=1900
DGENRE=
TTITLE0=The Fantastic Shakers - Shakin' The Shack
TTITLE1=Joe Simon - Amaging Grace
TTITLE2=General Johnson and The Chairmen - Gone Fishin'
TTITLE3=Breeze - Trickle Trickle
TTITLE4=The SugarBees - Slipin' N' Slidin'
TTITLE5=Jimmy 'Handyman' James - Grandma's Rock and Roll Party
TTITLE6=Gary Bass and The Clovers - All About You
TTITLE7=Bill Deal and The Rhondels - Thank You John
TTITLE8=The Catalinas - Whatjado That Fo'
TTITLE9=Microwave Dave and The Nukes - Roadrunner
TTITLE10=Coastline - It's Gonna Rain
TTITLE11=Terri Gore and The Softones - Ebony eyes
TTITLE12=Big Joe and The Dynaflows - Layin' In The Alley
TTITLE13=The Excello Legends - Stagger Lee
TTITLE14=The Roadrunners - Let The Booogie Woogie Roll
TTITLE15=The Kevin McKendree Express - Drivin' with Judy
TTITLE16=C L Blast - Beautiful Lover
TTITLE17=Earl Thomas - The Way She Shakes That Thang
TTITLE18=Ronnie Barnes - Jumpin' The Gun
TTITLE19=Soul Patrol - Shake Rattle and Roll
EXTD=
EXTT0=
EXTT1=
EXTT2=
EXTT3=
EXTT4=
EXTT5=
EXTT6=
EXTT7=
EXTT8=
EXTT9=
EXTT10=
EXTT11=
EXTT12=
EXTT13=
EXTT14=
EXTT15=
EXTT16=
EXTT17=
EXTT18=
EXTT19=
PLAYORDER=
